# Blender v2.73 (sub 0) OBJ File: 'Craft.blend'
# www.blender.org
mtllib PodRoom.mtl
o PodRoom_Room_PodRoom
v -5.991486 -0.026727 3.019952
v 6.008514 -0.026727 3.019952
v -5.991486 -0.026727 -2.980048
v 6.008514 -0.026727 -2.980048
v -5.991486 -0.026727 -2.740048
v -5.991486 -0.026727 -2.380048
v -5.991486 -0.026727 2.489552
v -5.991486 -0.026727 2.803952
v 6.008514 -0.026727 2.803952
v 6.008514 -0.026727 2.489552
v 6.008514 -0.026727 -2.380048
v 6.008514 -0.026727 -2.740048
v -5.551486 -0.026727 3.019952
v 5.648515 -0.026727 3.019952
v 5.648515 -0.026727 -2.980048
v -5.551486 -0.026727 -2.980048
v 5.648515 -0.026727 2.489552
v -5.551486 -0.026727 2.489552
v 5.648515 -0.026727 -2.380048
v -5.551486 -0.026727 -2.380048
v -5.991486 0.173273 3.019952
v 6.008514 0.173273 3.019952
v -5.991486 0.173273 -2.980048
v 6.008514 0.173273 -2.980048
v -5.991486 0.173273 -2.740048
v -5.991486 0.173273 -2.380048
v -5.991486 0.173273 2.489552
v -5.991486 0.173273 2.803952
v 6.008514 0.173273 2.803952
v 6.008514 0.173273 2.489552
v 6.008514 0.173273 -2.380048
v 6.008514 0.173273 -2.740048
v -5.551486 0.173273 3.019952
v 5.648515 0.173273 3.019952
v 5.648515 0.173273 -2.980048
v -5.551486 0.173273 -2.980048
v 5.648515 0.173273 2.803952
v -5.551486 0.173273 2.803952
v 5.648515 0.173273 2.489552
v -5.551486 0.173273 2.489552
v 5.648515 0.173273 -2.380048
v -5.551486 0.173273 -2.380048
v 5.648515 0.173273 -2.740048
v -5.551486 0.173273 -2.740048
v -5.991486 3.173273 3.019952
v 6.008514 3.173273 3.019952
v -5.991486 3.173273 -2.980048
v 6.008514 3.173273 -2.980048
v -5.991486 3.173273 -2.740048
v -5.991486 3.173273 -2.380048
v -5.991486 3.173273 2.489552
v -5.991486 3.173273 2.803952
v 6.008514 3.173273 2.803952
v 6.008514 3.173273 2.489552
v 6.008514 3.173273 -2.380048
v 6.008514 3.173273 -2.740048
v -5.551486 3.173273 3.019952
v 5.648515 3.173273 3.019952
v 5.648515 3.173273 -2.980048
v -5.551486 3.173273 -2.980048
v 5.648515 3.173273 2.803952
v -5.551486 3.173273 2.803952
v 5.648515 3.173273 2.489552
v -5.551486 3.173273 2.489552
v 5.648515 3.173273 -2.380048
v -5.551486 3.173273 -2.380048
v 5.648515 3.173273 -2.740048
v -5.551486 3.173273 -2.740048
v -5.991486 3.473273 3.019952
v 6.008514 3.473273 3.019952
v -5.991486 3.473273 -2.980048
v 6.008514 3.473273 -2.980048
v -5.991486 3.473273 -2.740048
v -5.991486 3.473273 -2.380048
v -5.991486 3.473273 2.489552
v -5.991486 3.473273 2.803952
v 6.008514 3.473273 2.803952
v 6.008514 3.473273 2.489552
v 6.008514 3.473273 -2.380048
v 6.008514 3.473273 -2.740048
v -5.551486 3.473273 3.019952
v 5.648515 3.473273 3.019952
v 5.648515 3.473273 -2.980048
v -5.551486 3.473273 -2.980048
v 5.648515 3.473273 2.803952
v -5.551486 3.473273 2.803952
v 5.648515 3.473273 2.489552
v -5.551486 3.473273 2.489552
v 5.648515 3.473273 -2.380048
v -5.551486 3.473273 -2.380048
v 5.648515 3.473273 -2.740048
v -5.551486 3.473273 -2.740048
v -5.551486 1.173273 -2.380048
v -5.551486 1.514241 -2.380048
v -5.551486 1.173273 2.489552
v -5.551486 1.514241 2.489552
v -5.551486 1.173273 2.803952
v -5.551486 1.514241 2.803952
v 5.648515 1.514241 2.803952
v 5.648515 1.173273 2.803952
v -5.551486 1.173273 -2.740048
v -5.551486 1.514241 -2.740048
v 5.648515 1.514241 2.489552
v 5.648515 1.173273 2.489552
v 5.648515 1.514241 -2.380048
v 5.648515 1.173273 -2.380048
v 5.648515 1.514241 -2.740048
v 5.648515 1.173273 -2.740048
v 4.408514 3.473273 2.489552
v 2.168514 3.473273 2.489552
v -2.119482 3.473273 2.489552
v -4.311486 3.473273 2.489552
v 4.408514 3.473273 -2.380048
v 2.168514 3.473273 -2.380048
v -2.119482 3.473273 -2.380048
v -4.311486 3.473273 -2.380048
v -4.311486 3.472242 -0.756848
v -2.119482 3.472242 0.866352
v 2.168514 3.472242 -0.756848
v 4.408514 3.472242 0.866352
v -4.311486 3.472242 0.866352
v 2.168514 3.472242 0.866352
v -4.215608 3.373273 0.770474
v -4.215608 3.373273 -0.660970
v -2.215360 3.373273 0.770474
v -2.215360 3.373273 -0.660970
v -2.119482 3.472242 -0.756848
v 2.264392 3.373273 0.770474
v 2.264392 3.373273 -0.660970
v 4.312636 3.373273 0.770474
v 4.312636 3.373273 -0.660970
v 4.408514 3.472242 -0.756848
vt 0.371199 -0.103297
vt 0.381849 -0.103297
vt 0.381849 -0.086556
vt 0.964035 0.986160
vt 0.946077 0.997581
vt 0.946078 0.986158
vt 0.000000 0.000000
vt 0.667495 0.997504
vt 0.667495 0.986081
vt 0.945619 0.986081
vt 0.990565 0.646840
vt 0.990565 0.794612
vt 0.650692 0.794612
vt 0.667953 0.997549
vt 0.647394 0.986124
vt 0.667955 0.986126
vt 0.647402 0.909535
vt 0.647413 0.814781
vt 0.667974 0.814783
vt 0.667963 0.909538
vt 0.946098 0.814815
vt 0.946087 0.909569
vt 0.964054 0.814817
vt 0.000252 0.879883
vt 0.000219 0.974833
vt 0.641218 0.975055
vt 0.667495 0.814739
vt 0.649538 0.814739
vt 0.667495 0.797604
vt 0.667976 0.797649
vt 0.946100 0.797681
vt 0.649538 0.909493
vt 0.668156 0.910680
vt 0.668156 0.816002
vt 0.946055 0.816002
vt 0.116224 -0.095485
vt 0.275965 -0.095485
vt 0.275965 -0.078744
vt 0.945619 0.909492
vt 0.945618 0.814738
vt 0.966179 0.814738
vt 0.638590 0.879035
vt 0.638590 0.973527
vt 0.000685 0.973527
vt 0.311462 -0.097438
vt 0.311462 -0.080697
vt 0.288033 -0.080697
vt 0.945618 0.797604
vt 0.328700 -0.099391
vt 0.344674 -0.099391
vt 0.344674 -0.082650
vt 0.458279 0.998897
vt 0.465798 0.998239
vt 0.578813 0.997428
vt 0.000278 0.803136
vt 0.000285 0.781810
vt 0.641284 0.782031
vt 0.000685 0.802658
vt 0.000685 0.779202
vt 0.638590 0.779202
vt 0.638590 0.802659
vt 0.638590 0.859615
vt 0.000685 0.859614
vt 0.000685 0.879035
vt 0.945619 0.928967
vt 0.966180 0.928966
vt 0.966179 0.909492
vt 0.667495 0.928967
vt 0.667495 0.909493
vt 0.649538 0.986081
vt 0.649538 0.928967
vt 0.000258 0.860368
vt 0.641257 0.860589
vt 0.641251 0.880105
vt 0.946085 0.929043
vt 0.964041 0.929045
vt 0.964044 0.909571
vt 0.667961 0.929012
vt 0.647400 0.929009
vt 0.076314 0.673709
vt 0.068803 0.681626
vt 0.068766 0.587542
vt 0.193635 0.681774
vt 0.185682 0.674334
vt 0.185964 0.595809
vt 0.453799 0.593789
vt 0.445841 0.586323
vt 0.573281 0.586826
vt 0.573677 0.681259
vt 0.565655 0.673743
vt 0.565783 0.594720
vt 0.076718 0.594998
vt 0.193449 0.587920
vt 0.453412 0.672481
vt 0.445901 0.680356
vt 0.447137 0.493960
vt 0.194494 0.493961
vt 0.444661 0.773813
vt 0.192445 0.773710
vt 0.574940 0.495125
vt 0.573277 0.773689
vt 0.643837 0.495288
vt 0.068272 0.772660
vt 0.000606 0.773334
vt 0.966180 0.986081
vt 0.945619 0.997504
vt 0.371199 -0.086557
vt 0.650692 0.646840
vt 0.946055 0.910680
vt 0.116224 -0.078744
vt 0.288033 -0.097438
vt 0.328700 -0.082650
vt 0.071308 1.000216
vt 0.000685 1.000216
vt 0.574434 0.998208
vt 0.638734 0.997827
vt 0.235920 1.000216
vt 0.071178 0.999728
vt 0.000210 0.999704
vt 0.249456 0.999790
vt 0.641375 0.996980
vt 0.641277 0.803357
vt 0.067877 0.494432
vt 0.642414 0.774169
vt -0.002915 0.495328
vn -1.000000 0.000000 0.000000
vn 1.000000 0.000000 0.000000
vn 0.000000 1.000000 0.000000
vn 0.000000 0.000000 1.000000
vn 0.000000 0.000000 -1.000000
vn 0.000000 0.768200 -0.640200
vn 0.000000 0.723500 0.690300
vn 0.000000 -0.843700 0.536700
vn 0.000000 0.874200 0.485600
vn 0.718200 0.695800 0.000000
vn -0.718200 0.695800 0.000000
vn 0.000000 0.695800 -0.718200
vn 0.000000 0.695800 0.718200
vn 0.000000 1.000000 -0.000600
vn 0.000000 1.000000 0.000600
vn -0.000800 1.000000 0.000000
vn 0.000800 1.000000 0.000000
usemtl Room
s off
f 8/1/1 28/2/1 27/3/1
f 38/4/2 18/5/2 40/6/2
f 10/7/2 30/7/2 29/7/2
f 17/8/1 39/9/1 41/10/1
f 12/7/2 32/7/2 31/7/2
f 1/7/1 21/7/1 28/7/1
f 17/11/3 19/12/3 20/13/3
f 4/7/2 24/7/2 32/7/2
f 5/7/1 25/7/1 23/7/1
f 14/7/4 34/7/4 33/7/4
f 7/7/1 27/7/1 26/7/1
f 20/14/2 44/15/2 42/16/2
f 24/7/2 48/7/2 56/7/2
f 25/7/1 49/7/1 47/7/1
f 102/17/2 68/18/2 66/19/2
f 34/7/4 58/7/4 57/7/4
f 27/7/1 51/7/1 50/7/1
f 94/20/2 66/19/2 64/21/2
f 36/7/5 60/7/5 59/7/5
f 29/7/2 53/7/2 46/7/2
f 96/22/2 64/21/2 62/23/2
f 31/7/2 55/7/2 54/7/2
f 98/24/5 62/25/5 61/26/5
f 22/7/4 46/7/4 58/7/4
f 15/7/5 35/7/5 24/7/5
f 6/7/1 26/7/1 25/7/1
f 13/7/4 33/7/4 21/7/4
f 3/7/5 23/7/5 36/7/5
f 2/7/4 22/7/4 34/7/4
f 11/7/2 31/7/2 30/7/2
f 20/14/2 42/16/2 40/6/2
f 9/7/2 29/7/2 22/7/2
f 16/7/5 36/7/5 35/7/5
f 63/27/1 61/28/1 87/29/1
f 56/7/2 80/7/2 79/7/2
f 45/7/1 69/7/1 76/7/1
f 48/7/2 72/7/2 80/7/2
f 49/7/1 73/7/1 71/7/1
f 90/30/2 66/19/2 68/18/2
f 58/7/4 82/7/4 81/7/4
f 51/7/1 75/7/1 74/7/1
f 66/19/2 90/30/2 88/31/2
f 60/7/5 84/7/5 83/7/5
f 53/7/2 77/7/2 70/7/2
f 21/7/1 45/7/1 52/7/1
f 32/7/2 56/7/2 55/7/2
f 99/32/1 61/28/1 63/27/1
f 30/7/2 54/7/2 53/7/2
f 103/33/1 63/34/1 65/35/1
f 28/36/1 52/37/1 51/38/1
f 35/7/5 59/7/5 48/7/5
f 105/39/1 65/40/1 67/41/1
f 26/7/1 50/7/1 49/7/1
f 33/7/4 57/7/4 45/7/4
f 107/42/4 67/43/4 68/44/4
f 23/7/5 47/7/5 60/7/5
f 80/7/3 72/7/3 83/7/3
f 70/7/3 77/7/3 85/7/3
f 77/7/3 78/7/3 87/7/3
f 78/7/3 79/7/3 89/7/3
f 79/7/3 80/7/3 91/7/3
f 90/7/3 92/7/3 73/7/3
f 88/7/3 90/7/3 74/7/3
f 86/45/3 88/46/3 75/47/3
f 81/7/3 86/7/3 76/7/3
f 82/7/3 85/7/3 86/7/3
f 92/7/3 84/7/3 71/7/3
f 91/7/3 83/7/3 84/7/3
f 54/7/2 78/7/2 77/7/2
f 63/27/1 87/29/1 89/48/1
f 52/49/1 76/50/1 75/51/1
f 59/7/5 83/7/5 72/7/5
f 65/40/1 89/48/1 67/41/1
f 50/7/1 74/7/1 73/7/1
f 57/7/4 81/7/4 69/7/4
f 67/7/4 91/7/4 92/7/4
f 47/7/5 71/7/5 84/7/5
f 46/7/4 70/7/4 82/7/4
f 62/7/5 86/7/5 85/7/5
f 55/7/2 79/7/2 78/7/2
f 67/43/6 68/44/6 114/52/6
f 110/53/7 61/26/7 109/54/7
f 38/55/8 18/56/8 17/57/8
f 44/58/9 20/59/9 19/60/9
f 43/61/4 108/62/4 101/63/4
f 108/62/4 107/42/4 102/64/4
f 41/10/1 106/65/1 108/66/1
f 106/65/1 105/39/1 107/67/1
f 39/9/1 104/68/1 106/65/1
f 104/68/1 103/69/1 105/39/1
f 37/70/1 100/71/1 104/68/1
f 100/71/1 99/32/1 103/69/1
f 38/55/5 97/72/5 100/73/5
f 97/72/5 98/24/5 99/74/5
f 40/6/2 95/75/2 97/76/2
f 95/75/2 96/22/2 98/77/2
f 42/16/2 93/78/2 95/75/2
f 93/78/2 94/20/2 96/22/2
f 44/15/2 101/79/2 93/78/2
f 101/79/2 102/17/2 94/20/2
f 124/80/10 117/81/10 121/82/10
f 127/83/11 126/84/11 125/85/11
f 128/86/12 122/87/12 120/88/12
f 132/89/11 131/90/11 130/91/11
f 123/92/12 121/82/12 118/93/12
f 117/81/13 124/80/13 126/84/13
f 129/94/10 119/95/10 122/87/10
f 122/87/3 119/95/3 127/83/3
f 119/95/13 129/94/13 131/90/13
f 130/91/3 131/90/3 129/94/3
f 110/96/14 122/87/14 118/93/14
f 125/85/3 126/84/3 124/80/3
f 111/97/14 118/93/14 121/82/14
f 119/95/15 114/98/15 115/99/15
f 109/100/14 120/88/14 122/87/14
f 132/89/15 113/101/15 114/98/15
f 120/88/16 87/102/16 132/89/16
f 127/83/15 115/99/15 116/103/15
f 90/104/17 121/82/17 117/81/17
f 37/70/1 39/9/1 17/8/1
f 43/105/1 19/106/1 41/10/1
f 88/31/2 62/23/2 64/21/2
f 7/107/1 8/1/1 27/3/1
f 9/7/2 10/7/2 29/7/2
f 19/106/1 17/8/1 41/10/1
f 11/7/2 12/7/2 31/7/2
f 8/7/1 1/7/1 28/7/1
f 18/108/3 17/11/3 20/13/3
f 12/7/2 4/7/2 32/7/2
f 3/7/1 5/7/1 23/7/1
f 13/7/4 14/7/4 33/7/4
f 6/7/1 7/7/1 26/7/1
f 32/7/2 24/7/2 56/7/2
f 23/7/1 25/7/1 47/7/1
f 94/20/2 102/17/2 66/19/2
f 33/7/4 34/7/4 57/7/4
f 26/7/1 27/7/1 50/7/1
f 96/22/2 94/20/2 64/21/2
f 35/7/5 36/7/5 59/7/5
f 22/7/2 29/7/2 46/7/2
f 98/77/2 96/22/2 62/23/2
f 30/7/2 31/7/2 54/7/2
f 99/74/5 98/24/5 61/26/5
f 34/7/4 22/7/4 58/7/4
f 4/7/5 15/7/5 24/7/5
f 5/7/1 6/7/1 25/7/1
f 1/7/4 13/7/4 21/7/4
f 16/7/5 3/7/5 36/7/5
f 14/7/4 2/7/4 34/7/4
f 10/7/2 11/7/2 30/7/2
f 18/5/2 20/14/2 40/6/2
f 2/7/2 9/7/2 22/7/2
f 15/7/5 16/7/5 35/7/5
f 55/7/2 56/7/2 79/7/2
f 52/7/1 45/7/1 76/7/1
f 56/7/2 48/7/2 80/7/2
f 47/7/1 49/7/1 71/7/1
f 57/7/4 58/7/4 81/7/4
f 50/7/1 51/7/1 74/7/1
f 64/21/2 66/19/2 88/31/2
f 59/7/5 60/7/5 83/7/5
f 46/7/2 53/7/2 70/7/2
f 28/7/1 21/7/1 52/7/1
f 31/7/2 32/7/2 55/7/2
f 103/69/1 99/32/1 63/27/1
f 29/7/2 30/7/2 53/7/2
f 105/109/1 103/33/1 65/35/1
f 27/110/1 28/36/1 51/38/1
f 24/7/5 35/7/5 48/7/5
f 107/67/1 105/39/1 67/41/1
f 25/7/1 26/7/1 49/7/1
f 21/7/4 33/7/4 45/7/4
f 102/64/4 107/42/4 68/44/4
f 36/7/5 23/7/5 60/7/5
f 91/7/3 80/7/3 83/7/3
f 82/7/3 70/7/3 85/7/3
f 85/7/3 77/7/3 87/7/3
f 87/7/3 78/7/3 89/7/3
f 89/7/3 79/7/3 91/7/3
f 74/7/3 90/7/3 73/7/3
f 75/7/3 88/7/3 74/7/3
f 76/111/3 86/45/3 75/47/3
f 69/7/3 81/7/3 76/7/3
f 81/7/3 82/7/3 86/7/3
f 73/7/3 92/7/3 71/7/3
f 92/7/3 91/7/3 84/7/3
f 53/7/2 54/7/2 77/7/2
f 65/40/1 63/27/1 89/48/1
f 51/112/1 52/49/1 75/51/1
f 48/7/5 59/7/5 72/7/5
f 49/7/1 50/7/1 73/7/1
f 45/7/4 57/7/4 69/7/4
f 68/7/4 67/7/4 92/7/4
f 60/7/5 47/7/5 84/7/5
f 58/7/4 46/7/4 82/7/4
f 61/7/5 62/7/5 85/7/5
f 54/7/2 55/7/2 78/7/2
f 116/113/6 68/44/6 90/114/6
f 113/115/6 89/116/6 67/43/6
f 67/43/6 114/52/6 113/115/6
f 68/44/6 116/113/6 115/117/6
f 115/117/6 114/52/6 68/44/6
f 62/25/7 112/118/7 88/119/7
f 62/25/7 110/53/7 111/120/7
f 61/26/7 87/121/7 109/54/7
f 110/53/7 62/25/7 61/26/7
f 62/25/7 111/120/7 112/118/7
f 37/122/8 38/55/8 17/57/8
f 43/61/9 44/58/9 19/60/9
f 44/58/4 43/61/4 101/63/4
f 101/63/4 108/62/4 102/64/4
f 43/105/1 41/10/1 108/66/1
f 108/66/1 106/65/1 107/67/1
f 41/10/1 39/9/1 106/65/1
f 106/65/1 104/68/1 105/39/1
f 39/9/1 37/70/1 104/68/1
f 104/68/1 100/71/1 103/69/1
f 37/122/5 38/55/5 100/73/5
f 100/73/5 97/72/5 99/74/5
f 38/4/2 40/6/2 97/76/2
f 97/76/2 95/75/2 98/77/2
f 40/6/2 42/16/2 95/75/2
f 95/75/2 93/78/2 96/22/2
f 42/16/2 44/15/2 93/78/2
f 93/78/2 101/79/2 94/20/2
f 123/92/10 124/80/10 121/82/10
f 118/93/11 127/83/11 125/85/11
f 130/91/12 128/86/12 120/88/12
f 120/88/11 132/89/11 130/91/11
f 125/85/12 123/92/12 118/93/12
f 127/83/13 117/81/13 126/84/13
f 128/86/10 129/94/10 122/87/10
f 118/93/3 122/87/3 127/83/3
f 132/89/13 119/95/13 131/90/13
f 128/86/3 130/91/3 129/94/3
f 111/97/14 110/96/14 118/93/14
f 123/92/3 125/85/3 124/80/3
f 112/123/14 111/97/14 121/82/14
f 127/83/15 119/95/15 115/99/15
f 110/96/14 109/100/14 122/87/14
f 119/95/15 132/89/15 114/98/15
f 87/102/14 120/88/14 109/100/14
f 89/124/15 113/101/15 132/89/15
f 132/89/16 87/102/16 89/124/16
f 117/81/15 127/83/15 116/103/15
f 121/82/17 90/104/17 88/125/17
f 90/104/15 117/81/15 116/103/15
f 88/125/14 112/123/14 121/82/14
o Cube
v 1.000000 0.275731 1.000000
v -1.000000 0.275731 1.000000
v -1.000000 0.275731 -1.000000
v -1.000000 2.275731 -1.000000
v -1.000000 2.275731 1.000000
v 0.999999 2.275731 1.000001
v 1.000000 2.275731 -0.999999
v 1.000000 0.275731 -1.000000
vt 0.720597 0.836761
vt 0.720597 0.670930
vt 0.886427 0.670930
vt 0.886427 0.836761
vn 0.000000 -1.000000 -0.000000
vn -0.000000 1.000000 0.000000
vn 1.000000 0.000000 0.000000
vn -0.000000 -0.000000 1.000000
vn -1.000000 0.000000 0.000000
vn 0.000000 0.000000 -1.000000
usemtl Room
s off
f 133/126/18 134/127/18 135/128/18
f 136/126/19 137/127/19 138/128/19
f 138/127/20 133/128/20 139/126/20
f 138/126/21 137/127/21 134/128/21
f 134/129/22 137/126/22 136/127/22
f 140/126/23 135/127/23 136/128/23
f 140/129/18 133/126/18 135/128/18
f 139/129/19 136/126/19 138/128/19
f 139/126/20 133/128/20 140/129/20
f 133/129/21 138/126/21 134/128/21
f 135/128/22 134/129/22 136/127/22
f 139/129/23 140/126/23 136/128/23
